<svg width="24" height="24" viewBox="0 0 24 24" fill="none" xmlns="http://www.w3.org/2000/svg">
<circle cx="12" cy="12" r="12" fill="white"/>
<mask id="mask0_748_14661" style="mask-type:alpha" maskUnits="userSpaceOnUse" x="0" y="0" width="24" height="24">
<circle cx="12" cy="12" r="12" fill="white"/>
</mask>
<g mask="url(#mask0_748_14661)">
<rect x="-5.14288" width="35.1429" height="24" fill="white"/>
<rect x="-5.14288" y="22.1538" width="35.1429" height="1.84615" fill="#D80027"/>
<rect x="-5.14288" y="18.4615" width="35.1429" height="1.84615" fill="#D80027"/>
<rect x="-5.14288" y="14.7692" width="35.1429" height="1.84615" fill="#D80027"/>
<rect x="-5.14288" y="11.0769" width="35.1429" height="1.84615" fill="#D80027"/>
<rect x="-5.14288" y="7.38461" width="35.1429" height="1.84615" fill="#D80027"/>
<rect x="-5.14288" y="3.69232" width="35.1429" height="1.84615" fill="#D80027"/>
<rect x="-5.14288" width="35.1429" height="1.84615" fill="#D80027"/>
<rect x="-5.14288" width="17.5714" height="12.9231" fill="#0052B4"/>
<path fill-rule="evenodd" clip-rule="evenodd" d="M10.5789 11.324L10.1712 11.637L10.3435 11.1533L9.91926 10.863L10.4334 10.8771L10.5789 10.3846L10.7244 10.8771L11.2386 10.863L10.8143 11.1533L10.9866 11.637L10.5789 11.324Z" fill="white"/>
<path fill-rule="evenodd" clip-rule="evenodd" d="M7.80451 11.324L7.39682 11.637L7.56912 11.1533L7.14485 10.863L7.65903 10.8771L7.80451 10.3846L7.94999 10.8771L8.46417 10.863L8.0399 11.1533L8.2122 11.637L7.80451 11.324Z" fill="white"/>
<path fill-rule="evenodd" clip-rule="evenodd" d="M5.03003 11.324L4.62234 11.637L4.79465 11.1533L4.37037 10.863L4.88456 10.8771L5.03003 10.3846L5.17551 10.8771L5.6897 10.863L5.26542 11.1533L5.43773 11.637L5.03003 11.324Z" fill="white"/>
<path fill-rule="evenodd" clip-rule="evenodd" d="M2.25562 11.324L1.84793 11.637L2.02023 11.1533L1.59596 10.863L2.11014 10.8771L2.25562 10.3846L2.4011 10.8771L2.91528 10.863L2.49101 11.1533L2.66331 11.637L2.25562 11.324Z" fill="white"/>
<path fill-rule="evenodd" clip-rule="evenodd" d="M-0.518793 11.324L-0.926486 11.637L-0.75418 11.1533L-1.17845 10.863L-0.66427 10.8771L-0.518793 10.3846L-0.373317 10.8771L0.140868 10.863L-0.283407 11.1533L-0.1111 11.637L-0.518793 11.324Z" fill="white"/>
<path fill-rule="evenodd" clip-rule="evenodd" d="M9.19172 10.1701L8.78402 10.4832L8.95633 9.99942L8.53206 9.70915L9.04624 9.72323L9.19172 9.23077L9.33719 9.72323L9.85138 9.70915L9.4271 9.99942L9.59941 10.4832L9.19172 10.1701Z" fill="white"/>
<path fill-rule="evenodd" clip-rule="evenodd" d="M6.41724 10.1701L6.00955 10.4832L6.18186 9.99942L5.75758 9.70915L6.27177 9.72323L6.41724 9.23077L6.56272 9.72323L7.0769 9.70915L6.65263 9.99942L6.82493 10.4832L6.41724 10.1701Z" fill="white"/>
<path fill-rule="evenodd" clip-rule="evenodd" d="M3.64283 10.1701L3.23513 10.4832L3.40744 9.99942L2.98317 9.70915L3.49735 9.72323L3.64283 9.23077L3.7883 9.72323L4.30249 9.70915L3.87821 9.99942L4.05052 10.4832L3.64283 10.1701Z" fill="white"/>
<path fill-rule="evenodd" clip-rule="evenodd" d="M0.868414 10.1701L0.460721 10.4832L0.633027 9.99942L0.208752 9.70915L0.722937 9.72323L0.868414 9.23077L1.01389 9.72323L1.52808 9.70915L1.1038 9.99942L1.27611 10.4832L0.868414 10.1701Z" fill="white"/>
<path fill-rule="evenodd" clip-rule="evenodd" d="M10.5789 9.01628L10.1712 9.32933L10.3435 8.84558L9.91926 8.55531L10.4334 8.56939L10.5789 8.07693L10.7244 8.56939L11.2386 8.55531L10.8143 8.84558L10.9866 9.32933L10.5789 9.01628Z" fill="white"/>
<path fill-rule="evenodd" clip-rule="evenodd" d="M7.80451 9.01628L7.39682 9.32933L7.56912 8.84558L7.14485 8.55531L7.65903 8.56939L7.80451 8.07693L7.94999 8.56939L8.46417 8.55531L8.0399 8.84558L8.2122 9.32933L7.80451 9.01628Z" fill="white"/>
<path fill-rule="evenodd" clip-rule="evenodd" d="M5.03003 9.01628L4.62234 9.32933L4.79465 8.84558L4.37037 8.55531L4.88456 8.56939L5.03003 8.07693L5.17551 8.56939L5.6897 8.55531L5.26542 8.84558L5.43773 9.32933L5.03003 9.01628Z" fill="white"/>
<path fill-rule="evenodd" clip-rule="evenodd" d="M2.25562 9.01628L1.84793 9.32933L2.02023 8.84558L1.59596 8.55531L2.11014 8.56939L2.25562 8.07693L2.4011 8.56939L2.91528 8.55531L2.49101 8.84558L2.66331 9.32933L2.25562 9.01628Z" fill="white"/>
<path fill-rule="evenodd" clip-rule="evenodd" d="M-0.518793 9.01628L-0.926486 9.32933L-0.75418 8.84558L-1.17845 8.55531L-0.66427 8.56939L-0.518793 8.07693L-0.373317 8.56939L0.140868 8.55531L-0.283407 8.84558L-0.1111 9.32933L-0.518793 9.01628Z" fill="white"/>
<path fill-rule="evenodd" clip-rule="evenodd" d="M9.19172 7.86241L8.78402 8.17546L8.95633 7.69171L8.53206 7.40144L9.04624 7.41552L9.19172 6.92307L9.33719 7.41552L9.85138 7.40144L9.4271 7.69171L9.59941 8.17546L9.19172 7.86241Z" fill="white"/>
<path fill-rule="evenodd" clip-rule="evenodd" d="M6.41724 7.86241L6.00955 8.17546L6.18186 7.69171L5.75758 7.40144L6.27177 7.41552L6.41724 6.92307L6.56272 7.41552L7.0769 7.40144L6.65263 7.69171L6.82493 8.17546L6.41724 7.86241Z" fill="white"/>
<path fill-rule="evenodd" clip-rule="evenodd" d="M3.64283 7.86241L3.23513 8.17546L3.40744 7.69171L2.98317 7.40144L3.49735 7.41552L3.64283 6.92307L3.7883 7.41552L4.30249 7.40144L3.87821 7.69171L4.05052 8.17546L3.64283 7.86241Z" fill="white"/>
<path fill-rule="evenodd" clip-rule="evenodd" d="M0.868414 7.86241L0.460721 8.17546L0.633027 7.69171L0.208752 7.40144L0.722937 7.41552L0.868414 6.92307L1.01389 7.41552L1.52808 7.40144L1.1038 7.69171L1.27611 8.17546L0.868414 7.86241Z" fill="white"/>
<path fill-rule="evenodd" clip-rule="evenodd" d="M10.5789 6.70857L10.1712 7.02162L10.3435 6.53787L9.91926 6.2476L10.4334 6.26168L10.5789 5.76923L10.7244 6.26168L11.2386 6.2476L10.8143 6.53787L10.9866 7.02162L10.5789 6.70857Z" fill="white"/>
<path fill-rule="evenodd" clip-rule="evenodd" d="M7.80451 6.70857L7.39682 7.02162L7.56912 6.53787L7.14485 6.2476L7.65903 6.26168L7.80451 5.76923L7.94999 6.26168L8.46417 6.2476L8.0399 6.53787L8.2122 7.02162L7.80451 6.70857Z" fill="white"/>
<path fill-rule="evenodd" clip-rule="evenodd" d="M5.03003 6.70857L4.62234 7.02162L4.79465 6.53787L4.37037 6.2476L4.88456 6.26168L5.03003 5.76923L5.17551 6.26168L5.6897 6.2476L5.26542 6.53787L5.43773 7.02162L5.03003 6.70857Z" fill="white"/>
<path fill-rule="evenodd" clip-rule="evenodd" d="M2.25562 6.70857L1.84793 7.02162L2.02023 6.53787L1.59596 6.2476L2.11014 6.26168L2.25562 5.76923L2.4011 6.26168L2.91528 6.2476L2.49101 6.53787L2.66331 7.02162L2.25562 6.70857Z" fill="white"/>
<path fill-rule="evenodd" clip-rule="evenodd" d="M-0.518793 6.70857L-0.926486 7.02162L-0.75418 6.53787L-1.17845 6.2476L-0.66427 6.26168L-0.518793 5.76923L-0.373317 6.26168L0.140868 6.2476L-0.283407 6.53787L-0.1111 7.02162L-0.518793 6.70857Z" fill="white"/>
<path fill-rule="evenodd" clip-rule="evenodd" d="M9.19172 5.55473L8.78402 5.86778L8.95633 5.38403L8.53206 5.09376L9.04624 5.10784L9.19172 4.61539L9.33719 5.10784L9.85138 5.09376L9.4271 5.38403L9.59941 5.86778L9.19172 5.55473Z" fill="white"/>
<path fill-rule="evenodd" clip-rule="evenodd" d="M6.41724 5.55473L6.00955 5.86778L6.18186 5.38403L5.75758 5.09376L6.27177 5.10784L6.41724 4.61539L6.56272 5.10784L7.0769 5.09376L6.65263 5.38403L6.82493 5.86778L6.41724 5.55473Z" fill="white"/>
<path fill-rule="evenodd" clip-rule="evenodd" d="M3.64283 5.55473L3.23513 5.86778L3.40744 5.38403L2.98317 5.09376L3.49735 5.10784L3.64283 4.61539L3.7883 5.10784L4.30249 5.09376L3.87821 5.38403L4.05052 5.86778L3.64283 5.55473Z" fill="white"/>
<path fill-rule="evenodd" clip-rule="evenodd" d="M0.868414 5.55473L0.460721 5.86778L0.633027 5.38403L0.208752 5.09376L0.722937 5.10784L0.868414 4.61539L1.01389 5.10784L1.52808 5.09376L1.1038 5.38403L1.27611 5.86778L0.868414 5.55473Z" fill="white"/>
<path fill-rule="evenodd" clip-rule="evenodd" d="M10.5789 4.40089L10.1712 4.71394L10.3435 4.23019L9.91926 3.93992L10.4334 3.954L10.5789 3.46155L10.7244 3.954L11.2386 3.93992L10.8143 4.23019L10.9866 4.71394L10.5789 4.40089Z" fill="white"/>
<path fill-rule="evenodd" clip-rule="evenodd" d="M7.80451 4.40089L7.39682 4.71394L7.56912 4.23019L7.14485 3.93992L7.65903 3.954L7.80451 3.46155L7.94999 3.954L8.46417 3.93992L8.0399 4.23019L8.2122 4.71394L7.80451 4.40089Z" fill="white"/>
<path fill-rule="evenodd" clip-rule="evenodd" d="M5.03003 4.40089L4.62234 4.71394L4.79465 4.23019L4.37037 3.93992L4.88456 3.954L5.03003 3.46155L5.17551 3.954L5.6897 3.93992L5.26542 4.23019L5.43773 4.71394L5.03003 4.40089Z" fill="white"/>
<path fill-rule="evenodd" clip-rule="evenodd" d="M2.25562 4.40089L1.84793 4.71394L2.02023 4.23019L1.59596 3.93992L2.11014 3.954L2.25562 3.46155L2.4011 3.954L2.91528 3.93992L2.49101 4.23019L2.66331 4.71394L2.25562 4.40089Z" fill="white"/>
<path fill-rule="evenodd" clip-rule="evenodd" d="M-0.518793 4.40089L-0.926486 4.71394L-0.75418 4.23019L-1.17845 3.93992L-0.66427 3.954L-0.518793 3.46155L-0.373317 3.954L0.140868 3.93992L-0.283407 4.23019L-0.1111 4.71394L-0.518793 4.40089Z" fill="white"/>
<path fill-rule="evenodd" clip-rule="evenodd" d="M9.19172 3.24702L8.78402 3.56007L8.95633 3.07632L8.53206 2.78605L9.04624 2.80013L9.19172 2.30768L9.33719 2.80013L9.85138 2.78605L9.4271 3.07632L9.59941 3.56007L9.19172 3.24702Z" fill="white"/>
<path fill-rule="evenodd" clip-rule="evenodd" d="M6.41724 3.24702L6.00955 3.56007L6.18186 3.07632L5.75758 2.78605L6.27177 2.80013L6.41724 2.30768L6.56272 2.80013L7.0769 2.78605L6.65263 3.07632L6.82493 3.56007L6.41724 3.24702Z" fill="white"/>
<path fill-rule="evenodd" clip-rule="evenodd" d="M3.64283 3.24702L3.23513 3.56007L3.40744 3.07632L2.98317 2.78605L3.49735 2.80013L3.64283 2.30768L3.7883 2.80013L4.30249 2.78605L3.87821 3.07632L4.05052 3.56007L3.64283 3.24702Z" fill="white"/>
<path fill-rule="evenodd" clip-rule="evenodd" d="M0.868414 3.24702L0.460721 3.56007L0.633027 3.07632L0.208752 2.78605L0.722937 2.80013L0.868414 2.30768L1.01389 2.80013L1.52808 2.78605L1.1038 3.07632L1.27611 3.56007L0.868414 3.24702Z" fill="white"/>
<path fill-rule="evenodd" clip-rule="evenodd" d="M10.5789 2.09318L10.1712 2.40624L10.3435 1.92248L9.91926 1.63221L10.4334 1.64629L10.5789 1.15384L10.7244 1.64629L11.2386 1.63221L10.8143 1.92248L10.9866 2.40624L10.5789 2.09318Z" fill="white"/>
<path fill-rule="evenodd" clip-rule="evenodd" d="M7.80451 2.09318L7.39682 2.40624L7.56912 1.92248L7.14485 1.63221L7.65903 1.64629L7.80451 1.15384L7.94999 1.64629L8.46417 1.63221L8.0399 1.92248L8.2122 2.40624L7.80451 2.09318Z" fill="white"/>
<path fill-rule="evenodd" clip-rule="evenodd" d="M5.03003 2.09318L4.62234 2.40624L4.79465 1.92248L4.37037 1.63221L4.88456 1.64629L5.03003 1.15384L5.17551 1.64629L5.6897 1.63221L5.26542 1.92248L5.43773 2.40624L5.03003 2.09318Z" fill="white"/>
<path fill-rule="evenodd" clip-rule="evenodd" d="M2.25562 2.09318L1.84793 2.40624L2.02023 1.92248L1.59596 1.63221L2.11014 1.64629L2.25562 1.15384L2.4011 1.64629L2.91528 1.63221L2.49101 1.92248L2.66331 2.40624L2.25562 2.09318Z" fill="white"/>
<path fill-rule="evenodd" clip-rule="evenodd" d="M-0.518793 2.09318L-0.926486 2.40624L-0.75418 1.92248L-1.17845 1.63221L-0.66427 1.64629L-0.518793 1.15384L-0.373317 1.64629L0.140868 1.63221L-0.283407 1.92248L-0.1111 2.40624L-0.518793 2.09318Z" fill="white"/>
</g>
</svg>
