<svg width="24" height="24" viewBox="0 0 24 24" fill="none" xmlns="http://www.w3.org/2000/svg">
<circle cx="12" cy="12" r="12" fill="#F8F8F8"/>
<mask id="mask0_748_14636" style="mask-type:alpha" maskUnits="userSpaceOnUse" x="0" y="0" width="24" height="24">
<circle cx="12" cy="12" r="12" fill="white"/>
</mask>
<g mask="url(#mask0_748_14636)">
<path fill-rule="evenodd" clip-rule="evenodd" d="M17.4397 17.9783L18.4613 16.4815L19.0671 16.8853L18.0455 18.3822L17.4397 17.9783Z" fill="black"/>
<path fill-rule="evenodd" clip-rule="evenodd" d="M18.6248 16.242L19.6464 14.7451L20.2522 15.1489L19.2306 16.6458L18.6248 16.242Z" fill="black"/>
<path fill-rule="evenodd" clip-rule="evenodd" d="M16.5915 17.4129L17.6131 15.916L18.2189 16.3199L17.1973 17.8168L16.5915 17.4129Z" fill="black"/>
<path fill-rule="evenodd" clip-rule="evenodd" d="M17.7766 15.6766L18.7982 14.1797L19.404 14.5835L18.3824 16.0804L17.7766 15.6766Z" fill="black"/>
<path fill-rule="evenodd" clip-rule="evenodd" d="M15.7433 16.8475L16.7649 15.3506L17.3708 15.7545L16.3492 17.2514L15.7433 16.8475Z" fill="black"/>
<path fill-rule="evenodd" clip-rule="evenodd" d="M16.9284 15.1112L17.95 13.6143L18.5558 14.0182L17.5342 15.515L16.9284 15.1112Z" fill="black"/>
<path fill-rule="evenodd" clip-rule="evenodd" d="M4.35364 14.7451L6.5603 17.9783L5.95446 18.3822L3.7478 15.1489L4.35364 14.7451Z" fill="black"/>
<path fill-rule="evenodd" clip-rule="evenodd" d="M6.38684 15.916L7.40844 17.4129L6.80261 17.8168L5.78101 16.3199L6.38684 15.916Z" fill="black"/>
<path fill-rule="evenodd" clip-rule="evenodd" d="M5.20178 14.1797L6.22339 15.6766L5.61755 16.0804L4.59595 14.5835L5.20178 14.1797Z" fill="black"/>
<path fill-rule="evenodd" clip-rule="evenodd" d="M6.04999 13.6143L8.25665 16.8475L7.65081 17.2514L5.44415 14.0181L6.04999 13.6143Z" fill="black"/>
<path fill-rule="evenodd" clip-rule="evenodd" d="M12.0701 15.9C9.85199 15.9 8.05383 14.1215 8.05383 11.9275C8.05383 11.219 8.24137 10.5538 8.57003 9.97778C8.43007 10.2546 8.35134 10.567 8.35134 10.8976C8.35134 12.0352 9.28371 12.8103 10.4339 12.8103C10.9307 12.8103 11.3403 12.7118 11.6982 12.2774C11.7234 12.2443 11.7484 12.2117 11.7734 12.1797L11.8484 12.0853C11.8733 12.0545 11.8982 12.0242 11.9231 11.9945L11.9979 11.9072C12.4718 11.3658 12.9562 11.0447 13.632 11.0447C14.7411 11.0447 15.786 11.6397 15.6402 13.1781C15.5886 13.7217 15.4182 14.217 15.0588 14.5759L15.0638 14.5758C14.3284 15.3885 13.2596 15.9 12.0701 15.9Z" fill="#0052B4"/>
<path fill-rule="evenodd" clip-rule="evenodd" d="M11.9298 8.10001C14.148 8.10001 15.9461 9.87856 15.9461 12.0725C15.9461 12.781 15.7586 13.4463 15.4299 14.0222C15.5699 13.7454 15.6486 13.433 15.6486 13.1024C15.6486 11.9648 14.7163 11.1897 13.5661 11.1897C13.0693 11.1897 12.6597 11.2883 12.3017 11.7226C11.7236 12.4848 11.1861 12.9553 10.368 12.9553C9.25888 12.9553 8.21392 12.3603 8.35981 10.8219C8.41136 10.2783 8.58178 9.78305 8.9412 9.42415L8.93619 9.42422C9.6716 8.61149 10.7403 8.10001 11.9298 8.10001Z" fill="#D80027"/>
<path fill-rule="evenodd" clip-rule="evenodd" d="M17.5342 8.48502L18.5558 9.98189L17.95 10.3858L16.9284 8.88888L17.5342 8.48502Z" fill="black"/>
<path fill-rule="evenodd" clip-rule="evenodd" d="M16.3492 6.74863L17.3708 8.2455L16.7649 8.64936L15.7433 7.15249L16.3492 6.74863Z" fill="black"/>
<path fill-rule="evenodd" clip-rule="evenodd" d="M17.1973 6.18323L19.404 9.41647L18.7982 9.82034L16.5915 6.58709L17.1973 6.18323Z" fill="black"/>
<path fill-rule="evenodd" clip-rule="evenodd" d="M19.2306 7.35419L20.2522 8.85106L19.6464 9.25492L18.6248 7.75805L19.2306 7.35419Z" fill="black"/>
<path fill-rule="evenodd" clip-rule="evenodd" d="M18.0455 5.61783L19.0671 7.1147L18.4613 7.51856L17.4397 6.02169L18.0455 5.61783Z" fill="black"/>
<path fill-rule="evenodd" clip-rule="evenodd" d="M5.44415 9.98187L7.65081 6.74863L8.25665 7.15249L6.04999 10.3857L5.44415 9.98187Z" fill="black"/>
<path fill-rule="evenodd" clip-rule="evenodd" d="M4.59595 9.41647L6.80261 6.18323L7.40844 6.58709L5.20178 9.82034L4.59595 9.41647Z" fill="black"/>
<path fill-rule="evenodd" clip-rule="evenodd" d="M3.7478 8.85107L5.95446 5.61783L6.5603 6.02169L4.35364 9.25494L3.7478 8.85107Z" fill="black"/>
</g>
</svg>
